<?xml version="1.0" standalone="no"?>
<!DOCTYPE svg PUBLIC "-//W3C//DTD SVG 20010904//EN"
 "http://www.w3.org/TR/2001/REC-SVG-20010904/DTD/svg10.dtd">
<svg version="1.0" xmlns="http://www.w3.org/2000/svg"
 width="600.000000pt" height="600.000000pt" viewBox="0 0 600.000000 600.000000"
 preserveAspectRatio="xMidYMid meet">

<g transform="translate(0.000000,600.000000) scale(0.100000,-0.100000)"
fill="#000000" stroke="none">
<path d="M2757 5820 c-127 -12 -282 -38 -399 -66 -107 -25 -391 -114 -385
-120 2 -2 48 1 103 6 803 78 1631 -291 2119 -945 152 -204 262 -411 334 -630
42 -127 89 -321 80 -330 -3 -3 -52 22 -109 55 -278 160 -643 264 -1008 286
-62 4 -112 10 -112 13 0 18 198 125 324 176 76 31 77 32 46 39 -18 3 -94 6
-169 6 -321 0 -605 -47 -834 -137 -49 -19 -90 -33 -93 -31 -2 3 17 65 41 139
83 245 151 553 190 852 21 163 19 173 -15 93 -54 -124 -178 -369 -256 -506
-68 -120 -239 -390 -246 -390 -2 0 -3 69 -4 153 0 83 -6 193 -13 242 -17 131
-43 255 -51 250 -4 -2 -10 -26 -14 -51 -23 -172 -132 -576 -233 -869 -55 -158
-64 -176 -124 -252 -103 -131 -146 -230 -205 -478 -46 -191 -120 -352 -194
-419 -46 -41 -78 -46 -107 -13 -30 33 -43 62 -57 130 l-13 62 -12 -40 c-33
-115 -53 -281 -48 -410 6 -162 21 -211 91 -280 121 -121 332 -109 678 37 l98
42 -71 17 c-106 27 -149 64 -149 128 0 40 57 104 121 137 26 13 158 51 293 84
363 89 458 129 560 236 42 43 44 44 107 44 80 0 184 -22 238 -50 242 -123 245
-427 8 -788 -137 -209 -297 -374 -657 -677 -245 -206 -427 -378 -525 -495
-147 -176 -243 -368 -278 -554 l-15 -76 47 -21 c216 -98 499 -181 752 -221
121 -18 186 -22 404 -22 271 -1 352 6 566 49 1020 206 1852 966 2152 1965 73
241 106 452 114 726 14 481 -77 902 -287 1329 -412 837 -1203 1416 -2126 1555
-157 24 -509 34 -657 20z m-570 -2232 c-55 -113 -149 -262 -207 -328 l-31 -35
6 105 c11 203 -2 177 148 290 73 54 133 94 135 89 2 -5 -21 -59 -51 -121z
m-468 -775 l36 -37 -36 -6 c-20 -4 -49 -16 -64 -29 -34 -26 -75 -84 -75 -105
0 -8 -5 -18 -11 -22 -22 -13 -4 120 22 167 21 38 57 68 83 69 4 0 24 -17 45
-37z"/>
<path d="M557 4428 c-244 -419 -370 -858 -384 -1338 -14 -485 76 -905 287
-1335 214 -437 555 -829 950 -1095 59 -40 92 -56 94 -48 2 7 12 42 21 76 78
296 278 542 787 971 120 101 218 184 218 184 0 1 -55 3 -123 4 -328 7 -613 76
-895 219 -81 41 -190 105 -242 142 -124 87 -355 318 -442 442 -78 110 -182
307 -231 436 -127 335 -158 712 -86 1069 21 102 80 298 106 348 8 16 12 31 10
33 -3 3 -34 -46 -70 -108z"/>
</g>
</svg>
